<svg width="427.2350219726562px" height="150.56000366210938px" xmlns="http://www.w3.org/2000/svg" viewBox="36.382489013671886 -0.28000183105469034 427.2350219726562 150.56000366210938" style="background: rgb(34, 34, 34);" preserveAspectRatio="xMidYMid"><defs><linearGradient id="editing-sticker-gradient" x1="0.5" y1="0.2" x2="0.5" y2="0.8"><stop offset="0" stop-color="#00d8ff"></stop><stop offset="1" stop-color="#222222"></stop></linearGradient><filter id="editing-sticker" x="-100%" y="-100%" width="300%" height="300%"><feMorphology operator="erode" radius="1" in="SourceAlpha" result="alpha-erode"></feMorphology><feConvolveMatrix order="3,3" divisor="1" kernelMatrix="0 1 0 1 1 1 0 1 0" in="alpha-erode" result="alpha-round"></feConvolveMatrix><feMorphology operator="dilate" radius="3.5" in="alpha-round" result="dilate-shadow"></feMorphology><feGaussianBlur in="dilate-shadow" stdDeviation="1.5" result="shadow"></feGaussianBlur><feFlood flood-color="#fff" result="flood-sticker"></feFlood><feComposite operator="in" in="flood-sticker" in2="alpha-round" result="comp-sticker"></feComposite><feMorphology operator="dilate" radius="3" in="comp-sticker" result="morph-sticker"></feMorphology><feConvolveMatrix order="3,3" divisor="1" kernelMatrix="0 1 0 1 1 1 0 1 0" in="morph-sticker" result="sticker"></feConvolveMatrix><feMerge><feMergeNode in="shadow"></feMergeNode><feMergeNode in="sticker"></feMergeNode><feMergeNode in="SourceGraphic"></feMergeNode></feMerge></filter></defs><g filter="url(#editing-sticker)"><g transform="translate(100.49501767754555, 96.63500022888184)"><path d="M6.08-35.33L6.08-35.33L6.08-35.33Q9.09-34.37 17.54-11.97L17.54-11.97L18.50-10.82L18.50-14.40L18.50-14.40Q18.50-28.67 25.54-34.56L25.54-34.56L25.54-34.56Q27.14-34.56 27.52-32.38L27.52-32.38L27.52-32.38Q22.72-25.22 22.72-20.80L22.72-20.80L22.72-20.80Q22.40-20.80 22.34-16.77L22.34-16.77L22.34-13.38L22.34-13.38Q22.34-8.96 23.30-0.77L23.30-0.77L23.30-0.77Q22.72 0.83 21.25 0.83L21.25 0.83L21.25 0.83Q19.78 0.83 17.09-5.18L17.09-5.18L17.09-5.18Q13.82-10.37 9.92-20.93L9.92-20.93L9.66-20.93L9.66-20.54L10.05-12.42L10.05-12.42Q10.05 0.19 5.25 3.84L5.25 3.84L3.65 4.03L3.65 4.03Q1.66 4.03 0.32 0.38L0.32 0.38L0.32 0.38Q0.77-1.60 2.30-1.60L2.30-1.60L2.69-1.60L3.90-0.58L4.10-0.58L4.10-0.58Q6.34-3.58 6.34-12L6.34-12L6.34-12Q6.34-20.42 3.90-33.34L3.90-33.34L3.90-33.34Q3.90-35.07 6.08-35.33ZM39.10-24.13L39.10-24.13L39.10-24.13Q43.84-24.13 46.27-17.09L46.27-17.09L46.53-15.74L46.53-15.74Q46.53-8.90 40.13-1.73L40.13-1.73L40.13-1.73Q37.57 0.64 34.94 0.64L34.94 0.64L34.94 0.64Q31.10 0.64 29.50-3.78L29.50-3.78L29.50-3.78Q28.93-5.82 28.93-7.36L28.93-7.36L28.93-8.13L28.93-8.13Q28.93-18.24 36.29-23.49L36.29-23.49L36.29-23.49Q37.57-24.13 39.10-24.13ZM32.70-7.49L32.70-7.49L32.70-7.49Q32.70-3.14 34.94-3.14L34.94-3.14L34.94-3.14Q39.62-3.14 42.69-15.10L42.69-15.10L42.69-16.32L42.69-16.32Q41.60-20.29 38.66-20.29L38.66-20.29L38.66-20.29Q37.50-20.29 37.50-18.69L37.50-18.69L37.50-18.69Q37.50-17.60 34.94-16.96L34.94-16.96L34.94-16.96Q32.70-13.18 32.70-7.49ZM50.11-33.34L50.11-33.34L50.11-33.34Q52.54-32.83 52.54-31.17L52.54-31.17L52.54-31.17Q51.90-29.38 50.50-29.38L50.50-29.38L50.50-29.38Q48.13-29.82 48.13-31.74L48.13-31.74L48.13-31.74Q48.77-33.34 50.11-33.34ZM52.54-24.38L52.54-24.38L52.54-24.38Q53.57-24.38 54.27-22.53L54.27-22.53L53.70-17.98L53.70-14.98L53.70-14.98Q53.70-9.73 55.49-1.22L55.49-1.22L55.49-1.22Q54.85 0 53.31 0L53.31 0L53.31 0Q50.69 0 49.86-15.36L49.86-15.36L49.86-17.60L49.86-17.60Q49.86-24.38 52.54-24.38ZM71.62-25.92L71.62-25.92L71.62-25.92Q73.34-25.92 73.98-20.10L73.98-20.10L73.98-20.10Q73.34-18.50 71.87-18.50L71.87-18.50L71.87-18.50Q70.85-18.69 69.82-20.86L69.82-20.86L68.67-21.25L68.67-21.25Q65.66-21.25 63.23-17.28L63.23-17.28L63.23-16.70L63.23-16.70Q63.23-15.74 72.26-13.50L72.26-13.50L72.26-13.50Q76.03-11.26 76.03-8.06L76.03-8.06L76.03-8.06Q76.03-2.82 67.58 0.90L67.58 0.90L65.22 1.28L65.22 1.28Q59.84 0.70 59.84-4.10L59.84-4.10L59.84-4.29L59.84-4.29Q59.84-5.82 61.82-6.08L61.82-6.08L61.82-6.08Q63.36-6.08 63.87-2.88L63.87-2.88L64.38-2.50L65.47-2.50L65.47-2.50Q69.12-2.50 72.26-7.49L72.26-7.49L72.26-8.32L72.26-8.32Q72.26-10.24 63.87-11.90L63.87-11.90L63.87-11.90Q59.46-13.70 59.46-16.90L59.46-16.90L59.46-16.90Q59.46-21.06 66.43-24.70L66.43-24.70L66.43-24.70Q69.50-25.09 71.62-25.92ZM84.16-22.98L84.16-22.98L84.16-22.98Q86.72-22.91 92.80-14.02L92.80-14.02L92.93-12.93L92.93-12.93Q92.93-11.14 84.16-10.18L84.16-10.18L83.97-9.98L83.97-9.73L83.97-9.73Q85.31-3.97 86.78-3.97L86.78-3.97L87.55-3.97L87.55-3.97Q89.60-3.97 93.76-8.38L93.76-8.38L94.14-8.38L94.14-8.38Q95.42-8.38 96.13-6.53L96.13-6.53L96.13-6.53Q96.13-4.99 90.75-1.22L90.75-1.22L90.75-1.22Q89.34-0.38 87.36 0L87.36 0L87.36 0Q82.18 0 80.13-9.73L80.13-9.73L80.13-9.73Q77.18-10.18 77.18-12.16L77.18-12.16L77.18-12.16Q77.18-13.57 79.36-14.02L79.36-14.02L79.36-13.76L80-14.02L80-15.62L80-15.62Q80-22.98 84.16-22.98ZM84.54-18.37L84.54-18.37L83.97-18.37L83.71-16L83.71-14.02L83.97-14.02L83.97-14.02Q87.55-14.14 87.55-14.78L87.55-14.78L87.55-14.78Q85.89-17.28 84.54-18.37ZM135.55-25.92L135.55-25.92L135.55-25.92Q137.28-25.92 137.92-20.10L137.92-20.10L137.92-20.10Q137.28-18.50 135.81-18.50L135.81-18.50L135.81-18.50Q134.78-18.69 133.76-20.86L133.76-20.86L132.61-21.25L132.61-21.25Q129.60-21.25 127.17-17.28L127.17-17.28L127.17-16.70L127.17-16.70Q127.17-15.74 136.19-13.50L136.19-13.50L136.19-13.50Q139.97-11.26 139.97-8.06L139.97-8.06L139.97-8.06Q139.97-2.82 131.52 0.90L131.52 0.90L129.15 1.28L129.15 1.28Q123.78 0.70 123.78-4.10L123.78-4.10L123.78-4.29L123.78-4.29Q123.78-5.82 125.76-6.08L125.76-6.08L125.76-6.08Q127.30-6.08 127.81-2.88L127.81-2.88L128.32-2.50L129.41-2.50L129.41-2.50Q133.06-2.50 136.19-7.49L136.19-7.49L136.19-8.32L136.19-8.32Q136.19-10.24 127.81-11.90L127.81-11.90L127.81-11.90Q123.39-13.70 123.39-16.90L123.39-16.90L123.39-16.90Q123.39-21.06 130.37-24.70L130.37-24.70L130.37-24.70Q133.44-25.09 135.55-25.92ZM143.10-33.34L143.10-33.34L143.10-33.34Q145.54-32.83 145.54-31.17L145.54-31.17L145.54-31.17Q144.90-29.38 143.49-29.38L143.49-29.38L143.49-29.38Q141.12-29.82 141.12-31.74L141.12-31.74L141.12-31.74Q141.76-33.34 143.10-33.34ZM145.54-24.38L145.54-24.38L145.54-24.38Q146.56-24.38 147.26-22.53L147.26-22.53L146.69-17.98L146.69-14.98L146.69-14.98Q146.69-9.73 148.48-1.22L148.48-1.22L148.48-1.22Q147.84 0 146.30 0L146.30 0L146.30 0Q143.68 0 142.85-15.36L142.85-15.36L142.85-17.60L142.85-17.60Q142.85-24.38 145.54-24.38ZM152.77-22.40L152.77-22.40L152.77-22.40Q153.22-24 154.82-24L154.82-24L154.82-24Q156.42-24 156.93-20.80L156.93-20.80L157.18-20.80L160.13-21.44L160.13-21.44Q162.18-21.44 164.10-17.60L164.10-17.60L164.35-17.60L164.35-17.60Q167.17-22.02 170.11-22.02L170.11-22.02L170.11-22.02Q176.38-20.86 176.38-13.82L176.38-13.82L176.51-11.58L175.94 1.34L175.94 2.56L175.94 2.56Q175.94 4.16 173.95 4.42L173.95 4.42L173.95 4.42Q171.97 4.42 171.97-0.26L171.97-0.26L172.74-11.84L172.74-11.84Q172.74-18.24 169.73-18.24L169.73-18.24L169.73-18.24Q168-18.24 165.57-9.86L165.57-9.86L165.57-9.86Q164.35-0.26 163.58-0.26L163.58-0.26L163.58-0.26Q162.50-0.26 162.50 0.19L162.50 0.19L162.50 0.19Q160.51-0.06 160.51-1.86L160.51-1.86L161.34-9.60L161.34-9.60Q161.15-17.60 159.74-17.60L159.74-17.60L159.55-17.60L159.55-17.60Q157.95-16.38 157.95-12.80L157.95-12.80L157.95-9.41L157.70 0.38L157.70 0.38Q157.25 1.98 155.71 1.98L155.71 1.98L155.71 1.98Q154.37 1.98 153.98-0.26L153.98-0.26L153.73-7.81L154.11-14.02L154.11-14.02Q153.73-18.82 152.77-22.40ZM182.59-19.26L182.59-19.26L183.74-19.90L183.74-19.90Q185.28-19.90 185.98-18.05L185.98-18.05L185.98-18.05Q184.96-13.31 184.96-8.32L184.96-8.32L184.96-8.32Q184.96-5.82 186.43-2.88L186.43-2.88L186.82-2.88L186.82-2.88Q188.67-2.88 191.23-17.54L191.23-17.54L191.23-17.54Q192.13-18.30 192.96-18.30L192.96-18.30L192.96-18.30Q194.94-18.30 194.94-11.26L194.94-11.26L194.94-11.26Q195.78-3.52 196.80-3.52L196.80-3.52L197.76-3.90L197.76-3.90Q199.62-3.20 199.62-1.92L199.62-1.92L199.62-1.92Q198.46 0.51 196.42 0.51L196.42 0.51L196.42 0.51Q194.11 0.51 192-4.10L192-4.10L192-4.10Q189.44 1.28 186.82 1.28L186.82 1.28L186.82 1.28Q182.91 1.28 181.38-6.85L181.38-6.85L181.18-8.90L181.18-9.54L181.18-9.54Q181.18-14.66 182.59-19.26ZM204.61-35.26L204.61-35.26L204.61-35.26Q206.40-34.62 206.40-33.28L206.40-33.28L207.04-8.90L207.04-1.02L207.04-1.02Q207.04 1.15 205.18 1.15L205.18 1.15L204.35 1.15L204.35 1.15Q203.20 0.38 203.20-0.64L203.20-0.64L203.20-8.06L202.62-33.41L202.62-33.41Q202.62-35.01 204.61-35.26ZM223.62-24.70L223.62-24.70L223.62-24.70Q226.43-24.70 226.43-22.46L226.43-22.46L225.86-21.25L225.47-9.54L225.47-9.54Q225.47-1.60 228.67 0.32L228.67 0.32L228.80 1.28L228.80 1.28Q228.61 3.14 227.07 3.14L227.07 3.14L226.69 3.14L226.69 3.14Q221.89-0.13 221.89-6.85L221.89-6.85L221.44-6.85L221.44-6.85Q218.88 0.32 215.23 0.32L215.23 0.32L215.23 0.32Q211.84-0.64 211.84-4.74L211.84-4.74L211.84-4.74Q211.84-13.76 219.07-22.72L219.07-22.72L219.07-22.72Q221.50-24.70 223.62-24.70ZM215.87-7.30L215.87-7.30L215.62-5.50L215.62-4.29L216.26-4.29L216.26-4.29Q221.06-16.26 221.06-18.88L221.06-18.88L220.80-18.88L220.80-18.88Q217.09-14.72 215.87-7.30ZM237.89-38.85L237.89-38.85L237.89-38.85Q239.68-38.46 239.68-37.06L239.68-37.06L239.30-34.24L239.30-33.41L239.30-33.41Q239.30-30.59 239.94-27.46L239.94-27.46L240.06-27.46L240.06-27.46Q247.49-29.70 249.28-29.70L249.28-29.70L249.28-29.70Q251.14-29.18 251.14-27.84L251.14-27.84L251.14-27.84Q251.14-25.66 246.72-25.66L246.72-25.66L240.06-23.30L240.06-23.30Q240.06-14.66 241.92 0.19L241.92 0.19L241.92 0.19Q241.54 1.92 240.06 1.92L240.06 1.92L239.94 1.92L239.94 1.92Q237.70 1.92 237.70-3.84L237.70-3.84L237.70-3.84Q236.86-8.13 236.29-22.46L236.29-22.46L235.14-22.46L235.14-22.46Q229.12-22.85 229.12-25.28L229.12-25.28L229.12-25.28Q229.12-25.98 230.46-27.01L230.46-27.01L231.10-27.01L234.05-26.24L236.10-26.24L235.52-34.24L235.52-34.24Q235.52-38.85 237.89-38.85ZM253.82-33.34L253.82-33.34L253.82-33.34Q256.26-32.83 256.26-31.17L256.26-31.17L256.26-31.17Q255.62-29.38 254.21-29.38L254.21-29.38L254.21-29.38Q251.84-29.82 251.84-31.74L251.84-31.74L251.84-31.74Q252.48-33.34 253.82-33.34ZM256.26-24.38L256.26-24.38L256.26-24.38Q257.28-24.38 257.98-22.53L257.98-22.53L257.41-17.98L257.41-14.98L257.41-14.98Q257.41-9.73 259.20-1.22L259.20-1.22L259.20-1.22Q258.56 0 257.02 0L257.02 0L257.02 0Q254.40 0 253.57-15.36L253.57-15.36L253.57-17.60L253.57-17.60Q253.57-24.38 256.26-24.38ZM272.70-24.13L272.70-24.13L272.70-24.13Q277.44-24.13 279.87-17.09L279.87-17.09L280.13-15.74L280.13-15.74Q280.13-8.90 273.73-1.73L273.73-1.73L273.73-1.73Q271.17 0.64 268.54 0.64L268.54 0.64L268.54 0.64Q264.70 0.64 263.10-3.78L263.10-3.78L263.10-3.78Q262.53-5.82 262.53-7.36L262.53-7.36L262.53-8.13L262.53-8.13Q262.53-18.24 269.89-23.49L269.89-23.49L269.89-23.49Q271.17-24.13 272.70-24.13ZM266.30-7.49L266.30-7.49L266.30-7.49Q266.30-3.14 268.54-3.14L268.54-3.14L268.54-3.14Q273.22-3.14 276.29-15.10L276.29-15.10L276.29-16.32L276.29-16.32Q275.20-20.29 272.26-20.29L272.26-20.29L272.26-20.29Q271.10-20.29 271.10-18.69L271.10-18.69L271.10-18.69Q271.10-17.60 268.54-16.96L268.54-16.96L268.54-16.96Q266.30-13.18 266.30-7.49ZM291.26-21.57L291.26-21.57L291.26-21.57Q296.70-21.12 296.70-16.26L296.70-16.26L296.83-15.42L296.70-5.44L296.70-5.44Q296.70-3.71 298.69-0.77L298.69-0.77L298.69-0.64L298.69-0.64Q298.18 1.22 296.83 1.22L296.83 1.22L296.83 1.22Q292.86-0.45 292.86-5.82L292.86-5.82L292.86-6.66L292.67-6.78L292.86-7.04L292.86-7.17L293.06-16L293.06-16Q293.06-17.86 291.46-17.86L291.46-17.86L290.69-17.86L290.69-17.86Q287.49-16.58 287.49-3.84L287.49-3.84L287.49-3.84Q287.49 0.58 285.25 0.58L285.25 0.58L285.25 0.58Q283.52 0.58 283.46-1.60L283.46-1.60L283.46-8L283.46-8Q283.46-20.42 285.63-20.42L285.63-20.42L286.27-20.61L287.62-20.42L287.62-20.42Q289.34-21.57 291.26-21.57Z" fill="url(#editing-sticker-gradient)" stroke="#00d8ff" stroke-width="2.5"></path></g></g><style>text {
  font-size: 64px;
  font-family: Arial Black;
  dominant-baseline: central;
  text-anchor: middle;
}</style></svg>